<svg xmlns="http://www.w3.org/2000/svg" width="60" height="60">
    <rect width="58" height="58" x="1" y="1" rx="10" ry="10" fill="#eee" stroke="#a30075" stroke-width="2"/>
    <path fill="#a30075" d="M11.25 9c-.98 0-1.75-.77-1.75-1.75s.77-1.75 1.75-1.75h14c.98 0 1.75.77 1.75 1.75S26.23 9 25.25 9H20v3.5h3.5c3.5 0 7 3.5 7 7v7h1.75c.98 0 1.75.77 1.75 1.75V30H20V28.25c0-.98.77-1.75 1.75-1.75H23.5v-7H13V51H6V19.5c0-3.85 3.15-7 7-7h3.5V9ZM36.8 40.5875c-1.3125 0-2.3875-1.075-2.3875-2.3875s1.075-2.375 2.3875-2.375c1.325 0 2.4 1.0625 2.4 2.375s-1.075 2.3875-2.4 2.3875ZM59.95 51.018V27.2625C33.4875 27.0125 21.35 37.85 21.35 37.85c-.1125.1125.2.275.2.4625a.6125.6125 90 00.3125.5625l10.1125 4.8c.425.225.6.5.6.9 0 .55-.4625.9875-1.0125.9875L20.3375 45.55c-.2125 0-.4875.175-.4875.375l-.0875.2625C31.125 55.2625 46 57.95 53.646 57.985Z" />
</svg>
