<svg xmlns="http://www.w3.org/2000/svg" width="60" height="60">
    <path d="M42.468 6.781c-3.836 0-6.968 3.133-6.968 6.97 0 1.106.255 2.161.718 3.093a23.3 23.3 0 0 0-5.093-.063 23.6 23.6 0 0 0-8.969 2.75C11.936 25.07 7.363 37.301 10.97 48.063H6.25v3.906L21.562 52c.898 3.856 4.341 6.75 8.469 6.75 4.13 0 7.573-2.892 8.469-6.75h20.812v-3.937h-3.531c2.088-6.216 1.551-13.138-1.625-19-2.111-3.896-5.123-6.955-8.656-9.063 2.324-1.132 3.937-3.5 3.937-6.25 0-3.836-3.132-6.969-6.969-6.969m-.5 2.063c.166-.017.33 0 .5 0 2.727 0 4.938 2.18 4.938 4.906 0 2.6-2.015 4.714-4.563 4.906a24 24 0 0 0-3.593-1.218 4.87 4.87 0 0 1-1.688-3.688 4.91 4.91 0 0 1 4.406-4.906m-18.03 13.312h4.374l5.031 14.782 4.907-14.782h4.25l-7.125 19.938h-4.313zM29.5 44.813c.175-.018.35 0 .531 0a5.215 5.215 0 0 1 5.219 5.218 5.215 5.215 0 0 1-5.219 5.22 5.215 5.215 0 0 1-5.219-5.22c0-2.705 2.053-4.95 4.688-5.218" fill="#a30075" fill-opacity="1" stroke="none"/>
</svg>
