<svg xmlns="http://www.w3.org/2000/svg" width="64" height="64" viewBox="0 0 64 64">
  <path stroke="#f00" stroke-width="2" d="
    M -96 96 l 128 -128
    M -80 96 l 128 -128
    M -64 96 l 128 -128
    M -48 96 l 128 -128
    M -32 96 l 128 -128
    M -16 96 l 128 -128
    M   0 96 l 128 -128
    M  16 96 l 128 -128
    M  32 96 l 128 -128

    M -80 -32 l 128 128
    M -64 -32 l 128 128
    M -48 -32 l 128 128
    M -32 -32 l 128 128
    M -16 -32 l 128 128
    M   0 -32 l 128 128
    M  16 -32 l 128 128
  " />
</svg>
